<?xml version="1.0" encoding="UTF-8" standalone="no"?>
<!-- Created with Inkscape (http://www.inkscape.org/) -->

<svg
   xmlns:dc="http://purl.org/dc/elements/1.1/"
   xmlns:cc="http://creativecommons.org/ns#"
   xmlns:rdf="http://www.w3.org/1999/02/22-rdf-syntax-ns#"
   xmlns:svg="http://www.w3.org/2000/svg"
   xmlns="http://www.w3.org/2000/svg"
   xmlns:xlink="http://www.w3.org/1999/xlink"
   xmlns:sodipodi="http://sodipodi.sourceforge.net/DTD/sodipodi-0.dtd"
   xmlns:inkscape="http://www.inkscape.org/namespaces/inkscape"
   width="300"
   height="300"
   id="svg3392"
   version="1.1"
   inkscape:version="0.48.0 r9654"
   sodipodi:docname="reload.svg">
  <defs
     id="defs3394">
    <filter
       color-interpolation-filters="sRGB"
       id="filter6495"
       inkscape:label="Drop shadow"
       width="1.5"
       height="1.5"
       x="-0.25"
       y="-0.25">
      <feGaussianBlur
         id="feGaussianBlur6497"
         in="SourceAlpha"
         stdDeviation="3"
         result="blur" />
      <feColorMatrix
         id="feColorMatrix6499"
         result="bluralpha"
         type="matrix"
         values="1 0 0 0 0 0 1 0 0 0 0 0 1 0 0 0 0 0 0.25 0 " />
      <feOffset
         id="feOffset6501"
         in="bluralpha"
         dx="7"
         dy="8"
         result="offsetBlur" />
      <feMerge
         id="feMerge6503">
        <feMergeNode
           id="feMergeNode6505"
           in="offsetBlur" />
        <feMergeNode
           id="feMergeNode6507"
           in="SourceGraphic" />
      </feMerge>
    </filter>
    <filter
       id="filter6742"
       inkscape:label="Combined lighting"
       inkscape:menu="Bevels"
       inkscape:menu-tooltip="Basic specular bevel to use for building textures"
       color-interpolation-filters="sRGB">
      <feGaussianBlur
         id="feGaussianBlur6744"
         stdDeviation="6"
         in="SourceGraphic"
         result="result0" />
      <feDiffuseLighting
         id="feDiffuseLighting6746"
         lighting-color="#ffffff"
         diffuseConstant="1"
         surfaceScale="4"
         result="result5">
        <feDistantLight
           id="feDistantLight6748"
           elevation="45"
           azimuth="235" />
      </feDiffuseLighting>
      <feComposite
         k4="0"
         k3="0"
         k2="0"
         id="feComposite6750"
         in2="SourceGraphic"
         k1="1.4"
         in="result5"
         result="fbSourceGraphic"
         operator="arithmetic" />
      <feGaussianBlur
         id="feGaussianBlur6752"
         result="result0"
         in="fbSourceGraphic"
         stdDeviation="6" />
      <feSpecularLighting
         id="feSpecularLighting6754"
         specularExponent="25"
         specularConstant="1"
         surfaceScale="4"
         lighting-color="#ffffff"
         result="result1"
         in="result0">
        <feDistantLight
           id="feDistantLight6756"
           azimuth="235"
           elevation="45" />
      </feSpecularLighting>
      <feComposite
         k4="0"
         k1="0"
         id="feComposite6758"
         in2="result1"
         k3="1"
         k2="1"
         operator="arithmetic"
         result="result4"
         in="fbSourceGraphic" />
      <feComposite
         id="feComposite6760"
         in2="SourceGraphic"
         operator="in"
         result="result2"
         in="result4" />
    </filter>
    <filter
       id="filter6722"
       inkscape:label="Combined lighting"
       inkscape:menu="Bevels"
       inkscape:menu-tooltip="Basic specular bevel to use for building textures"
       color-interpolation-filters="sRGB">
      <feGaussianBlur
         id="feGaussianBlur6724"
         stdDeviation="6"
         in="SourceGraphic"
         result="result0" />
      <feDiffuseLighting
         id="feDiffuseLighting6726"
         lighting-color="#ffffff"
         diffuseConstant="1"
         surfaceScale="4"
         result="result5">
        <feDistantLight
           id="feDistantLight6728"
           elevation="45"
           azimuth="235" />
      </feDiffuseLighting>
      <feComposite
         k4="0"
         k3="0"
         k2="0"
         id="feComposite6730"
         in2="SourceGraphic"
         k1="1.4"
         in="result5"
         result="fbSourceGraphic"
         operator="arithmetic" />
      <feGaussianBlur
         id="feGaussianBlur6732"
         result="result0"
         in="fbSourceGraphic"
         stdDeviation="6" />
      <feSpecularLighting
         id="feSpecularLighting6734"
         specularExponent="25"
         specularConstant="1"
         surfaceScale="4"
         lighting-color="#ffffff"
         result="result1"
         in="result0">
        <feDistantLight
           id="feDistantLight6736"
           azimuth="235"
           elevation="45" />
      </feSpecularLighting>
      <feComposite
         k4="0"
         k1="0"
         id="feComposite6738"
         in2="result1"
         k3="1"
         k2="1"
         operator="arithmetic"
         result="result4"
         in="fbSourceGraphic" />
      <feComposite
         id="feComposite6740"
         in2="SourceGraphic"
         operator="in"
         result="result2"
         in="result4" />
    </filter>
    <filter
       id="filter7888"
       inkscape:label="Specular light"
       inkscape:menu="ABCs"
       inkscape:menu-tooltip="Basic specular bevel to use for building textures"
       color-interpolation-filters="sRGB">
      <feGaussianBlur
         id="feGaussianBlur7890"
         result="result0"
         in="SourceAlpha"
         stdDeviation="6" />
      <feSpecularLighting
         id="feSpecularLighting7892"
         specularExponent="25"
         specularConstant="1"
         surfaceScale="10"
         lighting-color="#ffffff"
         result="result1"
         in="result0">
        <feDistantLight
           id="feDistantLight7894"
           azimuth="235"
           elevation="45" />
      </feSpecularLighting>
      <feComposite
         k4="0"
         k1="0"
         id="feComposite7896"
         in2="result1"
         k3="1"
         k2="1"
         operator="arithmetic"
         result="result4"
         in="SourceGraphic" />
      <feComposite
         id="feComposite7898"
         in2="SourceAlpha"
         operator="in"
         result="result2"
         in="result4" />
    </filter>
    <filter
       id="filter7912"
       inkscape:label="Specular light"
       inkscape:menu="ABCs"
       inkscape:menu-tooltip="Basic specular bevel to use for building textures"
       color-interpolation-filters="sRGB">
      <feGaussianBlur
         id="feGaussianBlur7914"
         result="result0"
         in="SourceAlpha"
         stdDeviation="6" />
      <feSpecularLighting
         id="feSpecularLighting7916"
         specularExponent="25"
         specularConstant="1"
         surfaceScale="10"
         lighting-color="#ffffff"
         result="result1"
         in="result0">
        <feDistantLight
           id="feDistantLight7918"
           azimuth="235"
           elevation="45" />
      </feSpecularLighting>
      <feComposite
         k4="0"
         k1="0"
         id="feComposite7920"
         in2="result1"
         k3="1"
         k2="1"
         operator="arithmetic"
         result="result4"
         in="SourceGraphic" />
      <feComposite
         id="feComposite7922"
         in2="SourceAlpha"
         operator="in"
         result="result2"
         in="result4" />
    </filter>
    <filter
       id="filter7900"
       inkscape:label="Specular light"
       inkscape:menu="ABCs"
       inkscape:menu-tooltip="Basic specular bevel to use for building textures"
       color-interpolation-filters="sRGB">
      <feGaussianBlur
         id="feGaussianBlur7902"
         result="result0"
         in="SourceAlpha"
         stdDeviation="6" />
      <feSpecularLighting
         id="feSpecularLighting7904"
         specularExponent="25"
         specularConstant="1"
         surfaceScale="10"
         lighting-color="#ffffff"
         result="result1"
         in="result0">
        <feDistantLight
           id="feDistantLight7906"
           azimuth="235"
           elevation="45" />
      </feSpecularLighting>
      <feComposite
         k4="0"
         k1="0"
         id="feComposite7908"
         in2="result1"
         k3="1"
         k2="1"
         operator="arithmetic"
         result="result4"
         in="SourceGraphic" />
      <feComposite
         id="feComposite7910"
         in2="SourceAlpha"
         operator="in"
         result="result2"
         in="result4" />
    </filter>
    <filter
       id="filter7924"
       inkscape:label="Specular light"
       inkscape:menu="ABCs"
       inkscape:menu-tooltip="Basic specular bevel to use for building textures"
       color-interpolation-filters="sRGB">
      <feGaussianBlur
         id="feGaussianBlur7926"
         result="result0"
         in="SourceAlpha"
         stdDeviation="6" />
      <feSpecularLighting
         id="feSpecularLighting7928"
         specularExponent="25"
         specularConstant="1"
         surfaceScale="10"
         lighting-color="#ffffff"
         result="result1"
         in="result0">
        <feDistantLight
           id="feDistantLight7930"
           azimuth="235"
           elevation="45" />
      </feSpecularLighting>
      <feComposite
         k4="0"
         k1="0"
         id="feComposite7932"
         in2="result1"
         k3="1"
         k2="1"
         operator="arithmetic"
         result="result4"
         in="SourceGraphic" />
      <feComposite
         id="feComposite7934"
         in2="SourceAlpha"
         operator="in"
         result="result2"
         in="result4" />
    </filter>
    <filter
       id="filter7972"
       inkscape:label="Specular light"
       inkscape:menu="ABCs"
       inkscape:menu-tooltip="Basic specular bevel to use for building textures"
       color-interpolation-filters="sRGB">
      <feGaussianBlur
         id="feGaussianBlur7974"
         result="result0"
         in="SourceAlpha"
         stdDeviation="6" />
      <feSpecularLighting
         id="feSpecularLighting7976"
         specularExponent="25"
         specularConstant="1"
         surfaceScale="10"
         lighting-color="#ffffff"
         result="result1"
         in="result0">
        <feDistantLight
           id="feDistantLight7978"
           azimuth="235"
           elevation="45" />
      </feSpecularLighting>
      <feComposite
         k4="0"
         k1="0"
         id="feComposite7980"
         in2="result1"
         k3="1"
         k2="1"
         operator="arithmetic"
         result="result4"
         in="SourceGraphic" />
      <feComposite
         id="feComposite7982"
         in2="SourceAlpha"
         operator="in"
         result="result2"
         in="result4" />
    </filter>
    <filter
       id="filter7960"
       inkscape:label="Specular light"
       inkscape:menu="ABCs"
       inkscape:menu-tooltip="Basic specular bevel to use for building textures"
       color-interpolation-filters="sRGB">
      <feGaussianBlur
         id="feGaussianBlur7962"
         result="result0"
         in="SourceAlpha"
         stdDeviation="6" />
      <feSpecularLighting
         id="feSpecularLighting7964"
         specularExponent="25"
         specularConstant="1"
         surfaceScale="10"
         lighting-color="#ffffff"
         result="result1"
         in="result0">
        <feDistantLight
           id="feDistantLight7966"
           azimuth="235"
           elevation="45" />
      </feSpecularLighting>
      <feComposite
         k4="0"
         k1="0"
         id="feComposite7968"
         in2="result1"
         k3="1"
         k2="1"
         operator="arithmetic"
         result="result4"
         in="SourceGraphic" />
      <feComposite
         id="feComposite7970"
         in2="SourceAlpha"
         operator="in"
         result="result2"
         in="result4" />
    </filter>
    <filter
       id="filter7948"
       inkscape:label="Specular light"
       inkscape:menu="ABCs"
       inkscape:menu-tooltip="Basic specular bevel to use for building textures"
       color-interpolation-filters="sRGB">
      <feGaussianBlur
         id="feGaussianBlur7950"
         result="result0"
         in="SourceAlpha"
         stdDeviation="6" />
      <feSpecularLighting
         id="feSpecularLighting7952"
         specularExponent="25"
         specularConstant="1"
         surfaceScale="10"
         lighting-color="#ffffff"
         result="result1"
         in="result0">
        <feDistantLight
           id="feDistantLight7954"
           azimuth="235"
           elevation="45" />
      </feSpecularLighting>
      <feComposite
         k4="0"
         k1="0"
         id="feComposite7956"
         in2="result1"
         k3="1"
         k2="1"
         operator="arithmetic"
         result="result4"
         in="SourceGraphic" />
      <feComposite
         id="feComposite7958"
         in2="SourceAlpha"
         operator="in"
         result="result2"
         in="result4" />
    </filter>
    <filter
       id="filter7936"
       inkscape:label="Specular light"
       inkscape:menu="ABCs"
       inkscape:menu-tooltip="Basic specular bevel to use for building textures"
       color-interpolation-filters="sRGB">
      <feGaussianBlur
         id="feGaussianBlur7938"
         result="result0"
         in="SourceAlpha"
         stdDeviation="6" />
      <feSpecularLighting
         id="feSpecularLighting7940"
         specularExponent="25"
         specularConstant="1"
         surfaceScale="10"
         lighting-color="#ffffff"
         result="result1"
         in="result0">
        <feDistantLight
           id="feDistantLight7942"
           azimuth="235"
           elevation="45" />
      </feSpecularLighting>
      <feComposite
         k4="0"
         k1="0"
         id="feComposite7944"
         in2="result1"
         k3="1"
         k2="1"
         operator="arithmetic"
         result="result4"
         in="SourceGraphic" />
      <feComposite
         id="feComposite7946"
         in2="SourceAlpha"
         operator="in"
         result="result2"
         in="result4" />
    </filter>
    <filter
       id="filter7888-3"
       inkscape:label="Specular light"
       inkscape:menu="ABCs"
       inkscape:menu-tooltip="Basic specular bevel to use for building textures"
       color-interpolation-filters="sRGB">
      <feGaussianBlur
         id="feGaussianBlur7890-8"
         result="result0"
         in="SourceAlpha"
         stdDeviation="6" />
      <feSpecularLighting
         id="feSpecularLighting7892-3"
         specularExponent="25"
         specularConstant="1"
         surfaceScale="10"
         lighting-color="#ffffff"
         result="result1"
         in="result0">
        <feDistantLight
           id="feDistantLight7894-7"
           azimuth="235"
           elevation="45" />
      </feSpecularLighting>
      <feComposite
         k4="0"
         k1="0"
         id="feComposite7896-9"
         in2="result1"
         k3="1"
         k2="1"
         operator="arithmetic"
         result="result4"
         in="SourceGraphic" />
      <feComposite
         id="feComposite7898-3"
         in2="SourceAlpha"
         operator="in"
         result="result2"
         in="result4" />
    </filter>
    <filter
       id="filter7912-7"
       inkscape:label="Specular light"
       inkscape:menu="ABCs"
       inkscape:menu-tooltip="Basic specular bevel to use for building textures"
       color-interpolation-filters="sRGB">
      <feGaussianBlur
         id="feGaussianBlur7914-8"
         result="result0"
         in="SourceAlpha"
         stdDeviation="6" />
      <feSpecularLighting
         id="feSpecularLighting7916-7"
         specularExponent="25"
         specularConstant="1"
         surfaceScale="10"
         lighting-color="#ffffff"
         result="result1"
         in="result0">
        <feDistantLight
           id="feDistantLight7918-4"
           azimuth="235"
           elevation="45" />
      </feSpecularLighting>
      <feComposite
         k4="0"
         k1="0"
         id="feComposite7920-1"
         in2="result1"
         k3="1"
         k2="1"
         operator="arithmetic"
         result="result4"
         in="SourceGraphic" />
      <feComposite
         id="feComposite7922-9"
         in2="SourceAlpha"
         operator="in"
         result="result2"
         in="result4" />
    </filter>
    <filter
       id="filter7900-0"
       inkscape:label="Specular light"
       inkscape:menu="ABCs"
       inkscape:menu-tooltip="Basic specular bevel to use for building textures"
       color-interpolation-filters="sRGB">
      <feGaussianBlur
         id="feGaussianBlur7902-9"
         result="result0"
         in="SourceAlpha"
         stdDeviation="6" />
      <feSpecularLighting
         id="feSpecularLighting7904-8"
         specularExponent="25"
         specularConstant="1"
         surfaceScale="10"
         lighting-color="#ffffff"
         result="result1"
         in="result0">
        <feDistantLight
           id="feDistantLight7906-8"
           azimuth="235"
           elevation="45" />
      </feSpecularLighting>
      <feComposite
         k4="0"
         k1="0"
         id="feComposite7908-5"
         in2="result1"
         k3="1"
         k2="1"
         operator="arithmetic"
         result="result4"
         in="SourceGraphic" />
      <feComposite
         id="feComposite7910-8"
         in2="SourceAlpha"
         operator="in"
         result="result2"
         in="result4" />
    </filter>
    <filter
       id="filter7706"
       inkscape:menu-tooltip="3D warped, fibered wood texture"
       inkscape:menu="Materials"
       inkscape:label="3D wood"
       height="1.5"
       y="-0.25"
       width="1.5"
       x="-0.25"
       color-interpolation-filters="sRGB">
      <feGaussianBlur
         id="feGaussianBlur7708"
         result="result8"
         stdDeviation="4" />
      <feTurbulence
         id="feTurbulence7710"
         baseFrequency="0.025 0.2"
         numOctaves="3"
         type="fractalNoise"
         result="result7"
         seed="22" />
      <feComposite
         in2="result8"
         id="feComposite7712"
         operator="in"
         in="SourceGraphic"
         result="result6" />
      <feDisplacementMap
         in2="result6"
         id="feDisplacementMap7714"
         result="result4"
         scale="50"
         yChannelSelector="A"
         xChannelSelector="A"
         in="result7" />
      <feFlood
         id="feFlood7716"
         flood-color="rgb(230,211,138)"
         flood-opacity="1"
         in="result4"
         result="result9" />
      <feComposite
         in2="result4"
         id="feComposite7718"
         operator="atop"
         result="result2" />
      <feComposite
         in2="SourceGraphic"
         id="feComposite7720"
         operator="atop"
         in="result2"
         result="result9" />
      <feGaussianBlur
         id="feGaussianBlur7722"
         result="result0"
         in="result9"
         stdDeviation="8" />
      <feSpecularLighting
         id="feSpecularLighting7724"
         specularExponent="15"
         specularConstant="0.69999999"
         surfaceScale="5"
         lighting-color="#ffffff"
         result="result1"
         in="result0">
        <feDistantLight
           id="feDistantLight7726"
           azimuth="235"
           elevation="50" />
      </feSpecularLighting>
      <feComposite
         in2="result9"
         id="feComposite7728"
         operator="in"
         result="result2"
         in="result1" />
      <feComposite
         k4="0"
         k1="0"
         in2="result2"
         id="feComposite7730"
         k3="0.5"
         k2="0.5"
         operator="arithmetic"
         result="result4"
         in="result9" />
      <feConvolveMatrix
         id="feConvolveMatrix7732"
         order="3 3"
         kernelMatrix="2 0 0 0 2 0 0 0 -2 "
         targetX="2"
         targetY="2"
         result="result10" />
      <feBlend
         in2="result10"
         id="feBlend7734"
         mode="multiply"
         in="result10" />
    </filter>
    <filter
       id="filter7924-4"
       inkscape:label="Specular light"
       inkscape:menu="ABCs"
       inkscape:menu-tooltip="Basic specular bevel to use for building textures"
       color-interpolation-filters="sRGB">
      <feGaussianBlur
         id="feGaussianBlur7926-3"
         result="result0"
         in="SourceAlpha"
         stdDeviation="6" />
      <feSpecularLighting
         id="feSpecularLighting7928-7"
         specularExponent="25"
         specularConstant="1"
         surfaceScale="10"
         lighting-color="#ffffff"
         result="result1"
         in="result0">
        <feDistantLight
           id="feDistantLight7930-1"
           azimuth="235"
           elevation="45" />
      </feSpecularLighting>
      <feComposite
         k4="0"
         k1="0"
         id="feComposite7932-3"
         in2="result1"
         k3="1"
         k2="1"
         operator="arithmetic"
         result="result4"
         in="SourceGraphic" />
      <feComposite
         id="feComposite7934-8"
         in2="SourceAlpha"
         operator="in"
         result="result2"
         in="result4" />
    </filter>
    <filter
       id="filter7972-0"
       inkscape:label="Specular light"
       inkscape:menu="ABCs"
       inkscape:menu-tooltip="Basic specular bevel to use for building textures"
       color-interpolation-filters="sRGB">
      <feGaussianBlur
         id="feGaussianBlur7974-9"
         result="result0"
         in="SourceAlpha"
         stdDeviation="6" />
      <feSpecularLighting
         id="feSpecularLighting7976-7"
         specularExponent="25"
         specularConstant="1"
         surfaceScale="10"
         lighting-color="#ffffff"
         result="result1"
         in="result0">
        <feDistantLight
           id="feDistantLight7978-9"
           azimuth="235"
           elevation="45" />
      </feSpecularLighting>
      <feComposite
         k4="0"
         k1="0"
         id="feComposite7980-9"
         in2="result1"
         k3="1"
         k2="1"
         operator="arithmetic"
         result="result4"
         in="SourceGraphic" />
      <feComposite
         id="feComposite7982-3"
         in2="SourceAlpha"
         operator="in"
         result="result2"
         in="result4" />
    </filter>
    <filter
       id="filter7960-2"
       inkscape:label="Specular light"
       inkscape:menu="ABCs"
       inkscape:menu-tooltip="Basic specular bevel to use for building textures"
       color-interpolation-filters="sRGB">
      <feGaussianBlur
         id="feGaussianBlur7962-4"
         result="result0"
         in="SourceAlpha"
         stdDeviation="6" />
      <feSpecularLighting
         id="feSpecularLighting7964-3"
         specularExponent="25"
         specularConstant="1"
         surfaceScale="10"
         lighting-color="#ffffff"
         result="result1"
         in="result0">
        <feDistantLight
           id="feDistantLight7966-7"
           azimuth="235"
           elevation="45" />
      </feSpecularLighting>
      <feComposite
         k4="0"
         k1="0"
         id="feComposite7968-1"
         in2="result1"
         k3="1"
         k2="1"
         operator="arithmetic"
         result="result4"
         in="SourceGraphic" />
      <feComposite
         id="feComposite7970-2"
         in2="SourceAlpha"
         operator="in"
         result="result2"
         in="result4" />
    </filter>
    <filter
       id="filter7948-2"
       inkscape:label="Specular light"
       inkscape:menu="ABCs"
       inkscape:menu-tooltip="Basic specular bevel to use for building textures"
       color-interpolation-filters="sRGB">
      <feGaussianBlur
         id="feGaussianBlur7950-0"
         result="result0"
         in="SourceAlpha"
         stdDeviation="6" />
      <feSpecularLighting
         id="feSpecularLighting7952-2"
         specularExponent="25"
         specularConstant="1"
         surfaceScale="10"
         lighting-color="#ffffff"
         result="result1"
         in="result0">
        <feDistantLight
           id="feDistantLight7954-1"
           azimuth="235"
           elevation="45" />
      </feSpecularLighting>
      <feComposite
         k4="0"
         k1="0"
         id="feComposite7956-7"
         in2="result1"
         k3="1"
         k2="1"
         operator="arithmetic"
         result="result4"
         in="SourceGraphic" />
      <feComposite
         id="feComposite7958-5"
         in2="SourceAlpha"
         operator="in"
         result="result2"
         in="result4" />
    </filter>
    <filter
       id="filter7936-1"
       inkscape:label="Specular light"
       inkscape:menu="ABCs"
       inkscape:menu-tooltip="Basic specular bevel to use for building textures"
       color-interpolation-filters="sRGB">
      <feGaussianBlur
         id="feGaussianBlur7938-7"
         result="result0"
         in="SourceAlpha"
         stdDeviation="6" />
      <feSpecularLighting
         id="feSpecularLighting7940-4"
         specularExponent="25"
         specularConstant="1"
         surfaceScale="10"
         lighting-color="#ffffff"
         result="result1"
         in="result0">
        <feDistantLight
           id="feDistantLight7942-1"
           azimuth="235"
           elevation="45" />
      </feSpecularLighting>
      <feComposite
         k4="0"
         k1="0"
         id="feComposite7944-7"
         in2="result1"
         k3="1"
         k2="1"
         operator="arithmetic"
         result="result4"
         in="SourceGraphic" />
      <feComposite
         id="feComposite7946-1"
         in2="SourceAlpha"
         operator="in"
         result="result2"
         in="result4" />
    </filter>
    <filter
       id="filter7984"
       inkscape:menu-tooltip="3D warped, fibered wood texture"
       inkscape:menu="Materials"
       inkscape:label="3D wood"
       height="1.5"
       y="-0.25"
       width="1.5"
       x="-0.25"
       color-interpolation-filters="sRGB">
      <feGaussianBlur
         id="feGaussianBlur7986"
         result="result8"
         stdDeviation="4" />
      <feTurbulence
         id="feTurbulence7988"
         baseFrequency="0.025 0.2"
         numOctaves="3"
         type="fractalNoise"
         result="result7"
         seed="22" />
      <feComposite
         id="feComposite7990"
         in2="result8"
         operator="in"
         in="SourceGraphic"
         result="result6" />
      <feDisplacementMap
         id="feDisplacementMap7992"
         in2="result6"
         result="result4"
         scale="50"
         yChannelSelector="A"
         xChannelSelector="A"
         in="result7" />
      <feFlood
         id="feFlood7994"
         flood-color="rgb(230,211,138)"
         flood-opacity="1"
         in="result4"
         result="result9" />
      <feComposite
         id="feComposite7996"
         in2="result4"
         operator="atop"
         result="result2" />
      <feComposite
         id="feComposite7998"
         in2="SourceGraphic"
         operator="atop"
         in="result2"
         result="result9" />
      <feGaussianBlur
         id="feGaussianBlur8000"
         result="result0"
         in="result9"
         stdDeviation="8" />
      <feSpecularLighting
         id="feSpecularLighting8002"
         specularExponent="15"
         specularConstant="0.69999999"
         surfaceScale="5"
         lighting-color="#ffffff"
         result="result1"
         in="result0">
        <feDistantLight
           id="feDistantLight8004"
           azimuth="235"
           elevation="50" />
      </feSpecularLighting>
      <feComposite
         id="feComposite8006"
         in2="result9"
         operator="in"
         result="result2"
         in="result1" />
      <feComposite
         k4="0"
         k1="0"
         id="feComposite8008"
         in2="result2"
         k3="0.5"
         k2="0.5"
         operator="arithmetic"
         result="result4"
         in="result9" />
      <feConvolveMatrix
         id="feConvolveMatrix8010"
         order="3 3"
         kernelMatrix="2 0 0 0 2 0 0 0 -2 "
         targetX="2"
         targetY="2"
         result="result10" />
      <feBlend
         id="feBlend8012"
         in2="result10"
         mode="multiply"
         in="result10" />
    </filter>
    <linearGradient
       gradientTransform="matrix(0.3679134,0,0,0.3679134,-0.88097315,757.70561)"
       y2="230.07812"
       x2="231.75"
       y1="230.07812"
       x1="39.65625"
       gradientUnits="userSpaceOnUse"
       id="linearGradient4197"
       xlink:href="#linearGradient4230"
       inkscape:collect="always" />
    <linearGradient
       id="linearGradient4230"
       inkscape:collect="always">
      <stop
         id="stop4232"
         offset="0"
         style="stop-color:#afd800;stop-opacity:1" />
      <stop
         id="stop4234"
         offset="1"
         style="stop-color:#60a600;stop-opacity:1" />
    </linearGradient>
    <inkscape:path-effect
       effect="bend_path"
       id="path-effect3947-4"
       is_visible="true"
       bendpath="m 6.8727212,754.08592 c 0,0 18.0366908,-78 85.5468658,-78 67.510183,0 105.546883,78 105.546883,78"
       prop_scale="1"
       scale_y_rel="false"
       vertical="false"
       bendpath-nodetypes="czc" />
    <filter
       id="filter3925-69"
       inkscape:label="Specular light"
       inkscape:menu="ABCs"
       inkscape:menu-tooltip="Basic specular bevel to use for building textures"
       color-interpolation-filters="sRGB">
      <feGaussianBlur
         id="feGaussianBlur3927-69"
         result="result0"
         in="SourceAlpha"
         stdDeviation="6" />
      <feSpecularLighting
         id="feSpecularLighting3929-9"
         specularExponent="25"
         specularConstant="1"
         surfaceScale="10"
         lighting-color="#ffffff"
         result="result1"
         in="result0">
        <feDistantLight
           id="feDistantLight3931-4"
           azimuth="235"
           elevation="45" />
      </feSpecularLighting>
      <feComposite
         k4="0"
         k1="0"
         id="feComposite3933-0"
         in2="result1"
         k3="1"
         k2="1"
         operator="arithmetic"
         result="result4"
         in="SourceGraphic" />
      <feComposite
         id="feComposite3935-95"
         in2="SourceAlpha"
         operator="in"
         result="result2"
         in="result4" />
    </filter>
    <linearGradient
       inkscape:collect="always"
       xlink:href="#linearGradient3897"
       id="linearGradient3903"
       x1="39.65625"
       y1="230.07812"
       x2="231.75"
       y2="230.07812"
       gradientUnits="userSpaceOnUse" />
    <linearGradient
       inkscape:collect="always"
       id="linearGradient3897">
      <stop
         style="stop-color:#ecd800;stop-opacity:1"
         offset="0"
         id="stop3899" />
      <stop
         style="stop-color:#ffa600;stop-opacity:1"
         offset="1"
         id="stop3901" />
    </linearGradient>
    <inkscape:path-effect
       effect="bend_path"
       id="path-effect3947"
       is_visible="true"
       bendpath="m 40.15625,228.07812 c 0,0 18.036691,-78 85.54687,-78 67.51018,0 105.54688,78 105.54688,78"
       prop_scale="1"
       scale_y_rel="false"
       vertical="false"
       bendpath-nodetypes="czc" />
    <filter
       id="filter3925"
       inkscape:label="Specular light"
       inkscape:menu="ABCs"
       inkscape:menu-tooltip="Basic specular bevel to use for building textures"
       color-interpolation-filters="sRGB">
      <feGaussianBlur
         id="feGaussianBlur3927"
         result="result0"
         in="SourceAlpha"
         stdDeviation="6" />
      <feSpecularLighting
         id="feSpecularLighting3929"
         specularExponent="25"
         specularConstant="1"
         surfaceScale="10"
         lighting-color="#ffffff"
         result="result1"
         in="result0">
        <feDistantLight
           id="feDistantLight3931"
           azimuth="235"
           elevation="45" />
      </feSpecularLighting>
      <feComposite
         k4="0"
         k1="0"
         id="feComposite3933"
         in2="result1"
         k3="1"
         k2="1"
         operator="arithmetic"
         result="result4"
         in="SourceGraphic" />
      <feComposite
         id="feComposite3935"
         in2="SourceAlpha"
         operator="in"
         result="result2"
         in="result4" />
    </filter>
    <linearGradient
       gradientTransform="matrix(0.3679134,0,0,0.3679134,121.55605,67.791236)"
       y2="230.07812"
       x2="231.75"
       y1="230.07812"
       x1="39.65625"
       gradientUnits="userSpaceOnUse"
       id="linearGradient4328"
       xlink:href="#linearGradient3897"
       inkscape:collect="always" />
  </defs>
  <sodipodi:namedview
     id="base"
     pagecolor="#ffffff"
     bordercolor="#666666"
     borderopacity="1.0"
     inkscape:pageopacity="0.0"
     inkscape:pageshadow="2"
     inkscape:zoom="1.28"
     inkscape:cx="380.54501"
     inkscape:cy="250"
     inkscape:document-units="px"
     inkscape:current-layer="layer1"
     showgrid="false"
     inkscape:window-width="1600"
     inkscape:window-height="823"
     inkscape:window-x="0"
     inkscape:window-y="24"
     inkscape:window-maximized="1" />
  <metadata
     id="metadata3397">
    <rdf:RDF>
      <cc:Work
         rdf:about="">
        <dc:format>image/svg+xml</dc:format>
        <dc:type
           rdf:resource="http://purl.org/dc/dcmitype/StillImage" />
        <dc:title></dc:title>
        <dc:title></dc:title>
      </cc:Work>
    </rdf:RDF>
  </metadata>
  <g
     inkscape:label="Layer 1"
     inkscape:groupmode="layer"
     id="layer1"
     transform="translate(0,-752.36218)">
    <path
       style="fill:url(#linearGradient4328);fill-opacity:1;stroke:none;filter:url(#filter3925)"
       d="m 16.064669,222.33949 c 0.0026,-0.01 0.0051,-0.019 0.0077,-0.0284 0.0073,-0.0271 0.01455,-0.0536 0.02165,-0.0795 0.02784,-0.10151 0.0538,-0.19372 0.07775,-0.27665 0,0 0,0 0,0 2e-6,-1e-5 3e-6,-1e-5 5e-6,-2e-5 0.102426,-0.35991 0.199387,-0.6866 0.290033,-0.98042 2e-6,-1e-5 3e-6,-1e-5 4e-6,-2e-5 0,0 0,0 0,0 0.345662,-1.1205 0.694034,-2.1749 1.039098,-3.16564 0,0 0,0 0,0 1e-6,0 2e-6,-1e-5 4e-6,-1e-5 0,0 0,0 0,0 1.251226,-3.59446 2.618488,-7.04841 4.06878,-10.36993 2e-6,-1e-5 3e-6,-1e-5 5e-6,-1e-5 0,0 0,0 0,0 4.653152,-10.73491 10.501499,-21.06785 17.566956,-30.65013 0,0 0,0 0,0 3e-6,0 5e-6,-10e-6 7e-6,-10e-6 8.838879,-12.15115 20.192459,-23.0487 33.824321,-31.20573 0,0 0,0 0,0 16.373733,-9.51542 34.785936,-13.68574 52.742166,-12.77784 0,0 1e-5,0 1e-5,0 19.01176,1.04496 36.84453,7.21659 52.02242,16.84994 8.93495,5.68746 16.95336,12.31308 24.13929,19.53235 2.72237,-12.051 4.2548,-24.67958 4.16714,-37.83866 7.09231,14.85875 10.9942,29.5946 12.88259,43.78795 0,0 0,0 0,0 0,0 0,0 0,1e-5 2.05179,15.20789 2.02333,29.89939 0.44002,43.83136 0,1e-5 0,1e-5 0,1e-5 -0.48288,4.23949 -1.12064,8.3928 -1.97103,12.39712 -0.23245,1.09589 -0.4922,2.15703 -0.79069,3.17318 0,0 0,0 0,0 0,0 0,0 0,0 -0.078,0.26568 -0.16559,0.51382 -0.26452,0.743 0,0 0,0 0,0 0,0 0,0 0,0 -0.0321,0.045 -0.0687,0.081 -0.11006,0.10784 0,0 0,0 0,0 3.71127,-1.80535 7.43137,-3.61481 11.16029,-5.42837 1.28793,-0.62636 2.5769,-1.25322 3.86693,-1.88057 0.001,-7.3e-4 0.003,-0.001 0.004,-0.002 -0.001,7.3e-4 -0.003,0.001 -0.004,0.002 -1.29003,0.62735 -2.58043,1.25491 -3.87119,1.88266 -3.73713,1.81759 -7.47732,3.63692 -11.22054,5.45796 0,0 0,0 0,0 -0.0213,0.004 -0.047,-1.2e-4 -0.0772,-0.0132 0,0 0,0 0,0 -0.14429,-0.10555 -0.29814,-0.22663 -0.46118,-0.36436 0,0 0,0 0,0 0,0 0,0 0,0 -0.62356,-0.52657 -1.27142,-1.07052 -1.94067,-1.63988 0,0 0,0 0,-1e-5 0,0 0,0 0,0 -2.4454,-2.07919 -4.97709,-4.08437 -7.57465,-6.05834 -8.55124,-6.48077 -17.43044,-11.92283 -26.4032,-16.10564 0,0 0,0 0,0 -9.85954,-4.48877 -19.45296,-7.40472 -28.02947,-7.90018 9.21773,-6.15372 20.03359,-10.64319 31.74828,-13.68546 -6.48731,-5.3602 -13.33015,-9.98721 -20.50812,-13.53011 -11.87825,-5.86763 -24.90723,-9.00904 -37.20449,-8.27508 0,0 0,0 0,0 -11.42534,0.61393 -22.62266,4.36018 -31.150401,10.76701 -7.634799,5.44606 -14.031301,13.30397 -19.397411,22.09587 -1e-6,0 -2e-6,0 -4e-6,0 -4.263488,7.11367 -7.652312,14.88512 -10.288535,22.99026 0,0 -1e-6,0 -2e-6,10e-6 -0.807693,2.51249 -1.51502,4.9734 -2.088355,7.3808 -1e-6,0 -1e-6,1e-5 -2e-6,1e-5 -0.158353,0.6652 -0.295423,1.27751 -0.404797,1.83748 -10e-7,0 -10e-7,10e-6 -10e-7,10e-6 -0.02876,0.14716 -0.04965,0.26468 -0.06174,0.35265 0,0 0,0 0,0 -0.0053,0.0313 -0.0084,0.0542 -0.0094,0.0686 -2.49e-4,0.004 -3.54e-4,0.007 -3.01e-4,0.009 2.3e-5,9e-4 6.1e-5,0.002 1.14e-4,0.003 -0.0038,-0.002 -0.0075,-0.003 -0.01121,-0.005 -0.01072,-0.005 -0.02127,-0.0108 -0.03168,-0.0171 -0.04081,-0.0246 -0.07936,-0.0578 -0.115801,-0.0996 -1e-6,0 -1e-6,0 -1e-6,0 -0.150239,-0.12886 -0.291013,-0.28998 -0.423681,-0.48147 0,0 0,0 0,0 -0.505749,-0.72887 -0.977964,-1.53193 -1.425977,-2.39577 -10e-7,0 -10e-7,0 -10e-7,0 -1.624225,-3.12769 -3.059234,-6.48696 -4.343262,-10.00144 0,0 0,0 0,0 -2.052781,-5.63804 -3.764743,-11.5568 -5.029468,-17.73895 -6.361285,2.34185 -12.712109,5.27569 -18.948483,8.73253 -10e-7,0 -10e-7,0 -2e-6,0 -3.890848,2.15245 -7.757721,4.55822 -11.572992,7.31227 -1e-6,0 -2e-6,0 -2e-6,0 -1.052556,0.75899 -2.111822,1.59084 -3.175191,2.51428 -1e-6,0 -2e-6,0 -2e-6,0 -0.279004,0.24212 -0.564583,0.51795 -0.856411,0.83016 0,0 -1e-6,0 -2e-6,1e-5 -0.07262,0.0707 -0.147267,0.15088 -0.223858,0.24057 -0.01953,0.0229 -0.03919,0.0464 -0.05896,0.0705 -0.0069,0.008 -0.01373,0.0168 -0.02061,0.0254 z"
       id="path3127"
       inkscape:connector-curvature="0"
       transform="matrix(0.95071153,0,0,0.95071153,32.65439,677.12542)"
       sodipodi:nodetypes="ccccccccc"
       inkscape:path-effect="#path-effect3947"
       inkscape:original-d="m 40.15625,204.3125 144.03125,12 -12,-32.3125 57.0625,61.84375 -61.0625,28.3125 16,-30.3125 -144.03125,8 20,-21.76563 z"
       inkscape:export-filename="/home/abdo/eclipse_helios_workspace/gestMyCar/bin/com/abdobelk/res/icons/jtree/Contracts/Running.png"
       inkscape:export-xdpi="102.48"
       inkscape:export-ydpi="102.48" />
    <path
       style="fill:url(#linearGradient4197);fill-opacity:1;stroke:none;filter:url(#filter3925-69)"
       d="m -17.21886,748.34729 c 0.0026,-0.01 0.0051,-0.019 0.0077,-0.0284 0.0073,-0.0271 0.01455,-0.0536 0.02165,-0.0795 0.02784,-0.10151 0.0538,-0.19372 0.07775,-0.27665 0,0 0,0 0,0 1e-6,-10e-6 2e-6,-10e-6 3e-6,-10e-6 0.102427,-0.35992 0.19939,-0.68661 0.290038,-0.98044 0,0 10e-7,0 2e-6,-10e-6 0,0 0,0 0,0 0.345662,-1.1205 0.694033,-2.1749 1.039097,-3.16564 10e-7,0 2e-6,-10e-6 4e-6,-10e-6 1.251227,-3.59446 2.61849,-7.04842 4.068783,-10.36994 0,0 10e-7,0 2e-6,0 4.6531516,-10.73491 10.5014987,-21.06784 17.5669556,-30.65013 1.1e-6,0 2.3e-6,0 3.5e-6,0 8.8388779,-12.15116 20.1924599,-23.04871 33.8243229,-31.20574 0,0 0,0 0,0 16.373732,-9.51542 34.785934,-13.68574 52.742164,-12.77784 0,0 0,0 0,0 4e-6,0 8e-6,0 1.2e-5,0 19.011761,1.04496 36.844531,7.21659 52.022421,16.84994 8.93495,5.68746 16.95336,12.31308 24.1393,19.53235 2.72236,-12.05099 4.2548,-24.67957 4.16713,-37.83866 7.09232,14.85876 10.9942,29.5946 12.88259,43.78795 0,0 0,0 0,0 2.12563,15.33284 2.07641,29.98921 0.37773,43.72596 0,0 0,0 0,0 -0.84995,5.86323 -1.79777,11.55097 -2.84345,17.06321 4.93276,-2.61587 9.86647,-5.2318 14.80116,-7.84778 -4.93469,2.61598 -9.86841,5.23191 -14.80117,7.84779 -3.5685,-3.06574 -7.09512,-6.0564 -10.57987,-8.97198 0,0 -1e-5,0 -1e-5,0 -8.51465,-6.41886 -17.3168,-11.73053 -26.17204,-15.71446 0,0 0,0 0,0 -9.85955,-4.48877 -19.45296,-7.40472 -28.02947,-7.90018 9.21773,-6.15372 20.03359,-10.64318 31.74829,-13.68545 -6.48731,-5.3602 -13.33016,-9.98722 -20.50813,-13.53012 -11.87825,-5.86763 -24.90723,-9.00904 -37.204485,-8.27508 -10e-7,0 -3e-6,0 -4e-6,0 -10e-7,0 -3e-6,0 -4e-6,0 -11.425337,0.61393 -22.62266,4.36018 -31.150398,10.76701 -7.634799,5.44606 -14.0313,13.30397 -19.39741,22.09587 -10e-7,0 -3e-6,0 -4e-6,0 -4.263488,7.11367 -7.652312,14.88512 -10.288534,22.99026 -1e-6,0 -2e-6,0 -3e-6,1e-5 -0.807693,2.51249 -1.515019,4.9734 -2.088355,7.3808 0,0 -1e-6,1e-5 -2e-6,1e-5 -0.158353,0.6652 -0.295423,1.27751 -0.404797,1.83748 0,0 -1e-6,1e-5 -1e-6,1e-5 -0.02876,0.14716 -0.04965,0.26468 -0.06174,0.35265 0,0 0,0 0,0 -0.0053,0.0313 -0.0084,0.0542 -0.0094,0.0687 -2.49e-4,0.004 -3.55e-4,0.007 -3.02e-4,0.009 2.3e-5,9e-4 6.1e-5,0.002 1.14e-4,0.003 -0.0038,-0.002 -0.0075,-0.003 -0.01121,-0.005 -0.01072,-0.005 -0.02127,-0.0108 -0.03168,-0.0171 -0.04081,-0.0246 -0.07936,-0.0578 -0.115801,-0.0996 -1e-6,0 -1e-6,0 -1e-6,0 -0.150239,-0.12886 -0.291012,-0.28998 -0.42368,-0.48147 -10e-7,0 -10e-7,0 -10e-7,0 -0.505749,-0.72887 -0.977963,-1.53193 -1.425977,-2.39576 0,-10e-6 0,-10e-6 0,-10e-6 0,0 0,0 0,0 -1.624225,-3.12769 -3.059235,-6.48696 -4.343262,-10.00144 -10e-7,0 -10e-7,0 -10e-7,0 -2.052781,-5.63804 -3.764743,-11.5568 -5.029468,-17.73895 -6.361285,2.34185 -12.7121096,5.27569 -18.9484833,8.73253 -6e-7,0 -1.2e-6,0 -1.8e-6,0 -3.8908476,2.15245 -7.7577204,4.55822 -11.5729919,7.31227 -10e-7,0 -10e-7,0 -2e-6,0 -1.052555,0.75899 -2.111822,1.59084 -3.175191,2.51428 -1e-6,0 -1e-6,0 -2e-6,0 -0.279003,0.24212 -0.564582,0.51795 -0.856411,0.83016 0,0 -1e-6,0 -1e-6,1e-5 -0.07262,0.0708 -0.147268,0.15088 -0.223858,0.24057 -0.01953,0.0229 -0.03919,0.0464 -0.05896,0.0705 -0.0069,0.008 -0.01372,0.0168 -0.02061,0.0254 z"
       id="path3127-1"
       inkscape:connector-curvature="0"
       sodipodi:nodetypes="ccccccccc"
       inkscape:path-effect="#path-effect3947-4"
       inkscape:original-d="m 6.8727212,730.3203 144.0312488,12 -12,-32.3125 57.0625,61.84375 -61.0625,28.3125 16,-30.3125 -144.0312488,8 19.9999998,-21.76563 z"
       transform="matrix(-0.95071153,0,0,-0.95071153,232.57807,1627.6639)"
       inkscape:export-filename="/home/abdo/eclipse_helios_workspace/gestMyCar/bin/com/abdobelk/res/icons/jtree/Contracts/Running.png"
       inkscape:export-xdpi="102.48"
       inkscape:export-ydpi="102.48" />
  </g>
</svg>
